HIERARCHY
ROOT Hips
{
	OFFSET 0.00000 0.00000 0.00000
	CHANNELS 6 Xposition Yposition Zposition Zrotation Yrotation Xrotation 
	JOINT LHipJoint
	{
		OFFSET 0 0 0
		CHANNELS 3 Zrotation Yrotation Xrotation
		JOINT LeftUpLeg
		{
			OFFSET 1.57358 -1.76629 0.73362
			CHANNELS 3 Zrotation Yrotation Xrotation
			JOINT LeftLeg
			{
				OFFSET 2.40600 -6.61045 0.00000
				CHANNELS 3 Zrotation Yrotation Xrotation
				JOINT LeftFoot
				{
					OFFSET 2.66168 -7.31291 0.00000
					CHANNELS 3 Zrotation Yrotation Xrotation
					JOINT LeftToeBase
					{
						OFFSET 0.20870 -0.57341 2.12506
						CHANNELS 3 Zrotation Yrotation Xrotation
						End Site
						{
							OFFSET 0.00000 -0.00000 1.10557
						}
					}
				}
			}
		}
	}
	JOINT RHipJoint
	{
		OFFSET 0 0 0
		CHANNELS 3 Zrotation Yrotation Xrotation
		JOINT RightUpLeg
		{
			OFFSET -1.49299 -1.76629 0.73362
			CHANNELS 3 Zrotation Yrotation Xrotation
			JOINT RightLeg
			{
				OFFSET -2.43663 -6.69460 0.00000
				CHANNELS 3 Zrotation Yrotation Xrotation
				JOINT RightFoot
				{
					OFFSET -2.62959 -7.22474 0.00000
					CHANNELS 3 Zrotation Yrotation Xrotation
					JOINT RightToeBase
					{
						OFFSET -0.25784 -0.70841 2.21862
						CHANNELS 3 Zrotation Yrotation Xrotation
						End Site
						{
							OFFSET -0.00000 -0.00000 1.16452
						}
					}
				}
			}
		}
	}
	JOINT LowerBack
	{
		OFFSET 0 0 0
		CHANNELS 3 Zrotation Yrotation Xrotation
		JOINT Spine
		{
			OFFSET -0.00034 2.12399 -0.25450
			CHANNELS 3 Zrotation Yrotation Xrotation
			JOINT Spine1
			{
				OFFSET 0.05594 2.14379 -0.03318
				CHANNELS 3 Zrotation Yrotation Xrotation
				JOINT Neck
				{
					OFFSET 0 0 0
					CHANNELS 3 Zrotation Yrotation Xrotation
					JOINT Neck1
					{
						OFFSET -0.09835 1.62725 0.24211
						CHANNELS 3 Zrotation Yrotation Xrotation
						JOINT Head
						{
							OFFSET 0.10849 1.66041 -0.22648
							CHANNELS 3 Zrotation Yrotation Xrotation
							End Site
							{
								OFFSET 0.04385 1.68267 -0.10541
							}
						}
					}
				}
				JOINT LeftShoulder
				{
					OFFSET 0 0 0
					CHANNELS 3 Zrotation Yrotation Xrotation
					JOINT LeftArm
					{
						OFFSET 3.29108 0.79398 -0.68179
						CHANNELS 3 Zrotation Yrotation Xrotation
						JOINT LeftForeArm
						{
							OFFSET 5.15310 -0.00000 -0.00000
							CHANNELS 3 Zrotation Yrotation Xrotation
							JOINT LeftHand
							{
								OFFSET 3.75138 -0.00000 -0.00000
								CHANNELS 3 Zrotation Yrotation Xrotation
								JOINT LeftFingerBase
								{
									OFFSET 0 0 0
									CHANNELS 3 Zrotation Yrotation Xrotation
									JOINT LeftHandIndex1
									{
										OFFSET 0.52917 -0.00000 0.00000
										CHANNELS 3 Zrotation Yrotation Xrotation
										End Site
										{
											OFFSET 0.42663 -0.00000 0.00000
										}
									}
								}
								JOINT LThumb
								{
									OFFSET 0 0 0
									CHANNELS 3 Zrotation Yrotation Xrotation
									End Site
									{
										OFFSET 0.43315 -0.00000 0.43315
									}
								}
							}
						}
					}
				}
				JOINT RightShoulder
				{
					OFFSET 0 0 0
					CHANNELS 3 Zrotation Yrotation Xrotation
					JOINT RightArm
					{
						OFFSET -3.07414 1.06285 -0.44338
						CHANNELS 3 Zrotation Yrotation Xrotation
						JOINT RightForeArm
						{
							OFFSET -5.29613 -0.00000 0.00000
							CHANNELS 3 Zrotation Yrotation Xrotation
							JOINT RightHand
							{
								OFFSET -3.76144 -0.00000 -0.00000
								CHANNELS 3 Zrotation Yrotation Xrotation
								JOINT RightFingerBase
								{
									OFFSET 0 0 0
									CHANNELS 3 Zrotation Yrotation Xrotation
									JOINT RightHandIndex1
									{
										OFFSET -0.74732 -0.00000 0.00000
										CHANNELS 3 Zrotation Yrotation Xrotation
										End Site
										{
											OFFSET -0.60251 -0.00000 0.00000
										}
									}
								}
								JOINT RThumb
								{
									OFFSET 0 0 0
									CHANNELS 3 Zrotation Yrotation Xrotation
									End Site
									{
										OFFSET -0.61171 -0.00000 0.61171
									}
								}
							}
						}
					}
				}
			}
		}
	}
}
MOTION
Frames: 14
Frame Time: .0083333
1.0311 21.9552 -16.4879 -0.7117 0.7326 5.1799 0.0000 0.0000 0.0000 -17.2048 -6.0633 -14.1638 1.8681 8.5857 24.5078 1.0788 0.9897 19.3302 0.0089 -0.6105 -1.6775 0.0000 0.0000 0.0000 19.4280 4.0687 -11.6796 -1.6260 -8.0392 22.8333 -0.4509 -13.1386 14.1288 -0.1737 -2.6845 7.4015 0.0641 -0.2967 8.6610 2.4655 -0.2701 0.2116 2.5633 -0.1083 -4.6297 -9.4440 -4.4487 -18.9752 6.7434 -4.6815 13.0019 3.1995 -2.0858 7.4888 0.0000 -0.0000 0.0000 -81.5787 -1.0881 23.2357 17.5125 -27.5284 -4.3216 -0.0000 -0.0000 0.2740 18.9452 19.6796 6.5939 -7.1250 0.0000 -0.0000 -9.4077 50.4570 -1.2750 0.0000 -0.0000 0.0000 80.2264 -3.2981 18.8886 -18.1820 28.3896 -4.6355 0.0000 0.0000 6.2881 -16.8788 11.3909 -3.4294 7.1250 -0.0000 -0.0000 7.1894 -18.1448 4.6296
1.0325 21.8388 -16.4916 -0.8045 0.8496 5.2302 0.0000 0.0000 0.0000 -17.1238 -6.3631 -13.9390 1.8113 8.4615 24.1249 1.0147 1.3552 18.6337 0.0036 -0.3875 -1.0647 0.0000 0.0000 0.0000 19.4915 4.2301 -11.5715 -1.5750 -7.9182 22.4660 -0.4032 -13.0282 13.6201 -0.1699 -2.6557 7.3215 0.1661 -0.3590 8.5630 2.5261 -0.3391 0.1078 2.5776 -0.1432 -4.6803 -9.6464 -4.3719 -18.7861 6.9419 -4.5800 13.0862 3.3142 -2.0332 7.4862 -0.0000 -0.0000 0.0000 -81.4103 -1.0766 23.0920 17.9174 -28.0513 -4.5103 -0.0000 -0.0000 1.9931 16.6151 24.3621 7.0172 -7.1250 0.0000 -0.0000 -13.6072 54.7542 -3.3059 -0.0000 -0.0000 0.0000 80.0389 -3.3233 19.1847 -18.0715 28.2487 -4.5830 0.0000 0.0000 5.0288 -17.3185 12.5310 -3.8704 7.1250 -0.0000 -0.0000 6.8884 -16.9334 4.6172
1.0360 21.7051 -16.4987 -0.8377 1.0222 5.2704 0.0000 0.0000 0.0000 -17.1060 -6.6493 -13.8143 1.7624 8.3525 23.7899 0.9815 1.9927 18.1601 0.0005 0.1493 0.4103 0.0000 0.0000 0.0000 19.4942 4.2584 -11.5019 -1.5281 -7.8050 22.1233 -0.3967 -12.6654 13.3959 -0.1920 -2.8222 7.7842 0.2842 -0.3858 8.6386 2.5002 -0.3588 -0.0763 2.4899 -0.1535 -4.9152 -9.8273 -4.0889 -18.9028 7.2569 -4.2226 13.8034 3.5010 -1.8448 7.7230 -0.0000 0.0000 0.0000 -81.0865 -0.8974 22.9454 18.4088 -28.6775 -4.7438 -0.0000 -0.0000 4.2572 12.8219 28.7843 6.2541 -7.1250 0.0000 -0.0000 -20.0827 58.2320 -6.6753 -0.0000 0.0000 0.0000 79.9431 -3.6313 18.9065 -18.6628 28.9976 -4.8663 0.0000 0.0000 7.8398 -17.5174 12.6521 -3.9547 7.1250 -0.0000 -0.0000 6.7519 -16.7920 4.5453
1.0375 21.5558 -16.5085 -0.8062 1.0754 5.3460 0.0000 0.0000 0.0000 -17.1502 -6.8744 -13.7443 1.7163 8.2483 23.4709 0.9523 2.7612 17.7202 0.0023 0.3088 0.8485 0.0000 0.0000 0.0000 19.4287 4.3809 -11.5048 -1.4920 -7.7163 21.8556 -0.3949 -12.2818 13.2124 -0.2155 -2.9883 8.2463 0.2345 -0.3781 8.7104 2.4959 -0.3483 -0.2642 2.5157 -0.1447 -5.1525 -9.7057 -4.1779 -18.6856 7.0689 -4.3624 13.7732 3.4007 -1.9267 7.6814 -0.0000 0.0000 0.0000 -80.8530 -0.7532 23.0845 18.4888 -28.7786 -4.7823 -0.0000 -0.0000 4.1912 13.0077 28.8962 6.3695 -7.1250 0.0000 -0.0000 -19.9691 58.3774 -6.7059 -0.0000 0.0000 0.0000 79.8463 -4.1389 19.3366 -19.0364 29.4638 -5.0487 0.0000 0.0000 7.9410 -18.6314 13.1362 -4.3816 7.1250 -0.0000 -0.0000 5.9903 -16.1938 4.1047
1.0317 21.4025 -16.5258 -0.7998 1.0537 5.5089 0.0000 0.0000 0.0000 -17.1400 -7.0381 -13.7379 1.6702 8.1424 23.1475 0.9044 3.1419 17.1875 0.0023 -0.3090 -0.8490 0.0000 0.0000 0.0000 19.4211 4.7206 -11.6336 -1.4694 -7.6603 21.6869 -0.3784 -12.1061 12.9679 -0.2070 -2.9292 8.0818 0.0748 -0.3788 8.6004 2.5442 -0.3621 -0.3903 2.6586 -0.1454 -5.2207 -9.6885 -4.2121 -18.2794 6.9788 -4.4267 13.5295 3.3603 -1.9711 7.5350 0.0000 -0.0000 0.0000 -80.6684 -0.7580 23.0698 18.6402 -28.9692 -4.8554 -0.0000 -0.0000 4.4216 12.6430 29.8264 6.3661 -7.1250 0.0000 -0.0000 -21.0217 59.1633 -7.4797 0.0000 -0.0000 0.0000 79.7140 -4.4123 19.9568 -19.1739 29.6341 -5.1165 0.0000 0.0000 6.4871 -19.9804 14.2578 -5.1169 7.1250 -0.0000 -0.0000 5.0990 -14.8911 3.6320
1.0251 21.2406 -16.5439 -0.7816 1.1056 5.7036 0.0000 0.0000 0.0000 -17.1263 -7.1077 -13.8261 1.6253 8.0376 22.8284 0.8542 3.1631 16.6834 0.0158 -0.8122 -2.2324 0.0000 0.0000 0.0000 19.4089 5.0021 -11.8372 -1.4541 -7.6221 21.5719 -0.3593 -11.8552 12.6604 -0.1631 -2.6022 7.1732 -0.0035 -0.3410 8.4369 2.4987 -0.3227 -0.4793 2.6489 -0.1239 -5.2232 -9.6714 -4.3005 -18.0207 7.1116 -4.5953 13.3966 3.3822 -2.0424 7.4653 -0.0000 0.0000 0.0000 -80.2432 -0.6619 24.0291 18.6385 -28.9671 -4.8545 -0.0000 -0.0000 1.4764 16.5029 25.2941 7.2144 -7.1250 0.0000 -0.0000 -14.1878 55.6509 -3.7630 -0.0000 0.0000 0.0000 79.7312 -4.5608 20.3364 -19.2680 29.7503 -5.1632 0.0000 0.0000 5.3098 -20.3715 15.1474 -5.5421 7.1250 -0.0000 -0.0000 4.8706 -13.9146 3.5696
1.0212 21.0593 -16.5548 -0.7699 1.1546 5.7601 0.0000 0.0000 0.0000 -17.1168 -7.1237 -13.8163 1.5833 7.9380 22.5258 0.8218 3.4398 16.3130 0.0124 -0.7177 -1.9723 0.0000 0.0000 0.0000 19.4061 5.1638 -11.9415 -1.4403 -7.5873 21.4673 -0.3391 -11.5887 12.3286 -0.0963 -2.0018 5.5106 -0.0073 -0.2821 8.3106 2.4182 -0.2509 -0.4638 2.5557 -0.0902 -5.1390 -9.6051 -4.4002 -17.9992 7.2594 -4.7778 13.4038 3.3986 -2.1127 7.4826 -0.0000 -0.0000 0.0000 -79.8044 -0.6576 24.6469 18.6220 -28.9463 -4.8465 -0.0000 0.0000 -0.3925 18.4524 20.5103 6.6682 -7.1250 0.0000 -0.0000 -10.1721 51.2230 -1.5731 -0.0000 -0.0000 0.0000 79.7749 -4.5162 20.4943 -19.2574 29.7373 -5.1579 0.0000 0.0000 4.3786 -19.7386 15.2646 -5.3965 7.1250 -0.0000 -0.0000 5.3032 -13.8607 3.8954
1.0172 20.8701 -16.5645 -0.7533 0.9974 5.6875 0.0000 0.0000 0.0000 -17.1599 -7.0463 -13.6157 1.5437 7.8429 22.2378 0.8197 4.0215 16.2243 0.0117 -0.6974 -1.9166 0.0000 0.0000 0.0000 19.3988 5.3194 -11.9065 -1.4302 -7.5617 21.3906 -0.3249 -11.3509 12.0705 -0.0565 -1.5332 4.2174 -0.1519 -0.2412 8.2743 2.4404 -0.2114 -0.4001 2.6545 -0.0676 -5.0531 -9.6585 -4.4207 -17.9323 7.2996 -4.8026 13.3408 3.4178 -2.1246 7.4552 -0.0000 0.0000 0.0000 -79.6435 -0.7525 24.3471 19.2643 -29.7458 -5.1613 -0.0000 -0.0000 1.6454 15.1898 25.2179 6.5985 -7.1250 0.0000 -0.0000 -15.4843 55.3163 -3.9915 -0.0000 0.0000 0.0000 79.6189 -4.3212 20.5469 -19.3356 29.8335 -5.1967 0.0000 0.0000 4.7281 -19.5909 15.6768 -5.4932 7.1250 -0.0000 -0.0000 5.4203 -13.4455 4.0298
1.0172 20.6761 -16.5736 -0.7238 0.7660 5.6855 0.0000 0.0000 0.0000 -17.2409 -6.9696 -13.5015 1.5192 7.7832 22.0575 0.8389 4.5097 16.3770 0.0159 -0.8129 -2.2342 0.0000 0.0000 0.0000 19.3789 5.3175 -11.9657 -1.4199 -7.5358 21.3127 -0.3481 -10.9105 12.1436 -0.0290 -1.1000 3.0240 -0.3306 -0.1782 8.3263 2.4909 -0.1416 -0.4221 2.8005 -0.0270 -5.1085 -9.6789 -4.3895 -18.1025 7.2483 -4.7343 13.4558 3.4118 -2.0950 7.5149 -0.0000 0.0000 0.0000 -79.6246 -0.9433 24.1544 19.5094 -30.0467 -5.2835 -0.0000 -0.0000 2.4282 13.9034 26.9626 6.4039 -7.1250 0.0000 -0.0000 -17.7841 56.7395 -5.2314 -0.0000 0.0000 0.0000 79.3975 -4.2389 20.1728 -19.6886 30.2654 -5.3735 0.0000 0.0000 7.4699 -17.7446 14.0265 -4.4349 7.1250 -0.0000 -0.0000 6.6185 -15.3490 4.6622
1.0165 20.4681 -16.5823 -0.6395 0.6348 5.6895 0.0000 0.0000 0.0000 -17.3783 -6.9501 -13.4225 1.5121 7.7658 22.0050 0.8513 4.5618 16.4972 0.0258 -1.0365 -2.8493 0.0000 0.0000 0.0000 19.3206 5.2513 -12.0640 -1.4097 -7.5098 21.2348 -0.3770 -10.6355 12.3582 -0.0095 -0.6301 1.7317 -0.5183 -0.1548 8.4284 2.4950 -0.1270 -0.4761 2.9110 -0.0132 -5.2232 -9.7366 -4.3028 -18.3231 7.3239 -4.6035 13.6824 3.4633 -2.0254 7.6186 0.0000 0.0000 0.0000 -79.4974 -1.1316 24.2318 19.5959 -30.1524 -5.3269 -0.0000 -0.0000 2.2801 14.0163 27.9597 6.6755 -7.1250 0.0000 -0.0000 -18.2947 57.7129 -5.8228 0.0000 0.0000 0.0000 79.2062 -4.3462 21.0806 -19.5022 30.0379 -5.2799 0.0000 0.0000 4.7942 -17.8464 14.7673 -4.6915 7.1250 -0.0000 -0.0000 6.5669 -14.5722 4.7352
1.0152 20.2433 -16.5911 -0.7251 0.6800 5.6581 0.0000 0.0000 0.0000 -17.3034 -6.9826 -13.3732 1.5183 7.7809 22.0507 0.8583 4.5454 16.5678 0.0358 -1.2207 -3.3564 0.0000 0.0000 0.0000 19.4818 5.0721 -12.1567 -1.4022 -7.4907 21.1774 -0.4064 -10.4329 12.6074 -0.0002 -0.1002 0.2752 -0.4592 -0.2300 8.4965 2.5190 -0.2183 -0.5359 2.9161 -0.0581 -5.3195 -9.7980 -4.2904 -18.1722 7.4011 -4.5998 13.6929 3.5012 -2.0227 7.5995 0.0000 -0.0000 0.0000 -79.3056 -1.0536 24.3819 19.7586 -30.3504 -5.4088 -0.0000 -0.0000 1.6823 14.9121 27.8045 7.0810 -7.1250 0.0000 -0.0000 -17.2675 57.7577 -5.5011 0.0000 -0.0000 0.0000 79.0197 -4.4714 21.6389 -19.6717 30.2447 -5.3650 0.0000 0.0000 4.6674 -16.7848 13.8197 -4.1210 7.1250 -0.0000 -0.0000 7.2713 -15.6479 5.0822
1.0137 20.0056 -16.5993 -0.9291 0.8182 5.6349 0.0000 0.0000 0.0000 -17.0625 -7.1586 -13.3361 1.5289 7.8068 22.1287 0.8428 4.6795 16.4037 0.0407 -1.3023 -3.5810 0.0000 0.0000 0.0000 19.7946 4.7994 -12.2957 -1.4025 -7.4912 21.1790 -0.4561 -10.1036 13.0365 -0.0014 0.2415 -0.6636 -0.2817 -0.2960 8.3972 2.5389 -0.2887 -0.5066 2.8438 -0.0987 -5.2295 -9.6382 -4.2976 -18.0812 7.3772 -4.6524 13.6116 3.4605 -2.0429 7.5575 0.0000 0.0000 0.0000 -79.0356 -1.0491 24.5913 19.9306 -30.5587 -5.4960 -0.0000 -0.0000 0.9188 15.8610 25.8639 7.0654 -7.1250 0.0000 -0.0000 -15.1476 56.0796 -4.1848 0.0000 0.0000 0.0000 78.9956 -4.4934 21.4851 -20.1767 30.8546 -5.6217 0.0000 0.0000 6.8610 -14.8926 11.7731 -3.1059 7.1250 -0.0000 -0.0000 8.5758 -17.8895 5.5900
1.0090 19.7638 -16.6119 -1.0736 0.9272 5.6746 0.0000 0.0000 0.0000 -16.8666 -7.3570 -13.2965 1.5409 7.8362 22.2175 0.7724 4.5776 15.6926 0.1123 -2.1603 -5.9490 0.0000 0.0000 0.0000 20.0611 4.5449 -12.5568 -1.4127 -7.5174 21.2576 -0.5240 -9.8477 13.6812 -0.0010 0.2020 -0.5551 -0.1884 -0.2838 8.1378 2.5091 -0.2702 -0.3869 2.7523 -0.0957 -4.9591 -9.5561 -4.2898 -18.0011 7.5982 -4.6973 13.3281 3.5142 -2.0400 7.4585 -0.0000 0.0000 0.0000 -78.6956 -1.3314 24.7013 20.1476 -30.8198 -5.6068 -0.0000 -0.0000 0.7921 15.5332 24.9480 6.6867 -7.1250 0.0000 -0.0000 -14.9956 55.1202 -3.7891 -0.0000 0.0000 0.0000 79.1210 -4.2995 22.0181 -19.7533 30.3440 -5.4062 0.0000 0.0000 3.2494 -17.3482 14.9954 -4.6211 7.1250 -0.0000 -0.0000 6.9102 -14.3844 5.0142
1.0048 19.5110 -16.6274 -1.1014 0.8905 5.7394 0.0000 0.0000 0.0000 -16.7847 -7.5582 -13.2867 1.5584 7.8783 22.3452 0.8059 5.3576 16.0045 0.0720 -1.7315 -4.7642 0.0000 0.0000 0.0000 20.1913 4.3864 -12.9323 -1.4450 -7.5990 21.5027 -0.6005 -9.3742 14.3480 -0.0052 0.4676 -1.2847 -0.2160 -0.2124 7.9679 2.4441 -0.1851 -0.2783 2.6862 -0.0562 -4.7541 -9.5082 -4.3355 -18.0267 7.8207 -4.7925 12.9921 3.5664 -2.0611 7.3662 -0.0000 0.0000 0.0000 -78.3929 -1.6859 24.7861 20.3294 -31.0372 -5.7002 -0.0000 -0.0000 0.7457 15.2991 23.9059 6.3256 -7.1250 0.0000 -0.0000 -14.7100 54.0554 -3.3294 -0.0000 0.0000 0.0000 79.2097 -3.9408 21.7698 -19.8382 30.4469 -5.4491 0.0000 0.0000 3.8549 -17.9981 14.7587 -4.7312 7.1250 -0.0000 -0.0000 6.4637 -14.5664 4.6606
